<?xml version="1.0" encoding="UTF-8" standalone="no"?>

<svg
   width="84.059814mm"
   height="22.519211mm"
   viewBox="0 0 84.059814 22.519211"
   version="1.1"
   id="svg5"
   xml:space="preserve"
   xmlns="http://www.w3.org/2000/svg"
   xmlns:svg="http://www.w3.org/2000/svg"><defs
     id="defs2">
     <style type="text/css">
        @font-face {
          font-family: Lexenddeca;
          src: url(font/lexenddeca-variablefont_wght-webfont.woff);}

        path{
          font-family: Lexenddeca
          font-weight:600;
          fill:#E9D8C4;
        }
      </style>
      </defs><g
     id="layer1"
     transform="translate(-58.644063,-210.59353)"><g
       id="g7075"><g
         aria-label="tealinae."
         transform="matrix(0.26458333,0,0,0.26458333,-7.3988433,152.69886)"
         id="text13337-2"
         style="font-size:53.3333px;line-height:0;text-align:end;white-space:pre;shape-inside:url(#rect13339-78);display:inline;stroke-width:0"><path
           d="m 254.89098,303.33983 v -35.35997 h 7.57332 v 35.35997 z m -5.28,-21.43998 v -6.77333 h 18.66665 v 6.77333 z"
           id="path7077" /><path
           d="m 286.30429,303.87317 q -4.58667,0 -8.05333,-1.86667 -3.41333,-1.86666 -5.33333,-5.12 -1.86667,-3.25333 -1.86667,-7.46666 0,-3.30666 1.06667,-6.02666 1.06666,-2.72 2.98666,-4.69333 1.92,-2.02667 4.53333,-3.09333 2.66667,-1.12 5.76,-1.12 2.88,0 5.33333,1.06666 2.45333,1.06667 4.21333,2.98667 1.81333,1.86666 2.77333,4.48 0.96,2.55999 0.85334,5.54666 l -0.0533,2.34666 H 275.851 l -1.22667,-4.63999 h 17.65333 l -0.85334,0.96 v -1.17334 q -0.10666,-1.43999 -0.96,-2.55999 -0.8,-1.17334 -2.07999,-1.81334 -1.28,-0.69333 -2.88,-0.69333 -2.34667,0 -4,0.90667 -1.6,0.90666 -2.45333,2.66666 -0.85333,1.76 -0.85333,4.26667 0,2.55999 1.06666,4.42666 1.12,1.86667 3.09333,2.93333 2.02667,1.01333 4.74667,1.01333 1.86666,0 3.41333,-0.58666 1.54666,-0.58667 3.30666,-2.02667 l 3.62667,5.06667 q -1.54667,1.38666 -3.41333,2.34666 -1.86667,0.90667 -3.84,1.38667 -1.97333,0.48 -3.89333,0.48 z"
           id="path7079" /><path
           d="m 314.73096,303.87317 q -3.52,0 -6.34666,-1.92 -2.82667,-1.92 -4.48,-5.22667 -1.65333,-3.30666 -1.65333,-7.57332 0,-4.26667 1.65333,-7.57333 1.70667,-3.30667 4.58666,-5.17333 2.88,-1.86667 6.56,-1.86667 2.08,0 3.78666,0.64 1.76,0.58667 3.04,1.65333 1.33333,1.06667 2.24,2.45334 0.90667,1.38666 1.28,2.98666 l -1.6,-0.26667 v -6.87999 h 7.52 v 28.21331 h -7.62667 v -6.77333 l 1.70667,-0.15999 q -0.42667,1.49333 -1.38667,2.82666 -0.96,1.33333 -2.39999,2.4 -1.38667,1.01333 -3.14667,1.65333 -1.76,0.58667 -3.73333,0.58667 z m 2.08,-6.56 q 2.13333,0 3.73333,-1.01333 1.6,-1.01333 2.45333,-2.82667 0.90667,-1.86666 0.90667,-4.31999 0,-2.4 -0.90667,-4.21333 -0.85333,-1.81334 -2.45333,-2.82667 -1.6,-1.06667 -3.73333,-1.06667 -2.08,0 -3.68,1.06667 -1.54667,1.01333 -2.45333,2.82667 -0.90667,1.81333 -0.90667,4.21333 0,2.45333 0.90667,4.31999 0.90666,1.81334 2.45333,2.82667 1.6,1.01333 3.68,1.01333 z"
           id="path7081" /><path
           d="m 338.94423,303.33983 v -39.46664 h 7.57333 v 39.46664 z"
           id="path7083" /><path
           d="m 354.83759,303.33983 v -28.21331 h 7.57333 v 28.21331 z m 3.73333,-33.97331 q -2.18667,0 -3.41333,-1.06666 -1.22667,-1.12 -1.22667,-3.09334 0,-1.81333 1.22667,-2.93333 1.28,-1.17333 3.41333,-1.17333 2.18666,0 3.41333,1.12 1.22667,1.06666 1.22667,2.98666 0,1.81334 -1.28,2.98667 -1.22667,1.17333 -3.36,1.17333 z"
           id="path7085" /><path
           d="m 370.51757,303.33983 v -28.21331 h 7.25332 l 0.21334,5.75999 -1.49333,0.64 q 0.58666,-1.91999 2.07999,-3.46666 1.54667,-1.6 3.68,-2.56 2.13333,-0.96 4.48,-0.96 3.2,0 5.33333,1.28 2.18666,1.28 3.25333,3.89333 1.12,2.56 1.12,6.34666 v 17.27999 h -7.57333 v -16.69332 q 0,-1.92 -0.53333,-3.2 -0.53333,-1.28 -1.65333,-1.86666 -1.06667,-0.58667 -2.66667,-0.53334 -1.28,0 -2.4,0.42667 -1.06666,0.37333 -1.86666,1.12 -0.74667,0.74667 -1.22667,1.70667 -0.42667,0.95999 -0.42667,2.07999 v 16.95999 h -3.73333 q -1.22666,0 -2.18666,0 -0.96,0 -1.65333,0 z"
           id="path7087" /><path
           d="m 414.25085,303.87317 q -3.51999,0 -6.34666,-1.92 -2.82666,-1.92 -4.48,-5.22667 -1.65333,-3.30666 -1.65333,-7.57332 0,-4.26667 1.65333,-7.57333 1.70667,-3.30667 4.58667,-5.17333 2.88,-1.86667 6.55999,-1.86667 2.08,0 3.78667,0.64 1.76,0.58667 3.04,1.65333 1.33333,1.06667 2.23999,2.45334 0.90667,1.38666 1.28,2.98666 l -1.6,-0.26667 v -6.87999 h 7.52 v 28.21331 h -7.62666 v -6.77333 l 1.70666,-0.15999 q -0.42666,1.49333 -1.38666,2.82666 -0.96,1.33333 -2.4,2.4 -1.38667,1.01333 -3.14667,1.65333 -1.75999,0.58667 -3.73333,0.58667 z m 2.08,-6.56 q 2.13333,0 3.73333,-1.01333 1.6,-1.01333 2.45334,-2.82667 0.90666,-1.86666 0.90666,-4.31999 0,-2.4 -0.90666,-4.21333 -0.85334,-1.81334 -2.45334,-2.82667 -1.6,-1.06667 -3.73333,-1.06667 -2.08,0 -3.68,1.06667 -1.54666,1.01333 -2.45333,2.82667 -0.90666,1.81333 -0.90666,4.21333 0,2.45333 0.90666,4.31999 0.90667,1.81334 2.45333,2.82667 1.6,1.01333 3.68,1.01333 z"
           id="path7089" /><path
           d="m 451.79744,303.87317 q -4.58666,0 -8.05333,-1.86667 -3.41333,-1.86666 -5.33333,-5.12 -1.86666,-3.25333 -1.86666,-7.46666 0,-3.30666 1.06667,-6.02666 1.06666,-2.72 2.98666,-4.69333 1.92,-2.02667 4.53333,-3.09333 2.66667,-1.12 5.76,-1.12 2.88,0 5.33333,1.06666 2.45333,1.06667 4.21333,2.98667 1.81333,1.86666 2.77333,4.48 0.96,2.55999 0.85333,5.54666 l -0.0533,2.34666 h -22.66665 l -1.22667,-4.63999 h 17.65332 l -0.85333,0.96 v -1.17334 q -0.10667,-1.43999 -0.96,-2.55999 -0.8,-1.17334 -2.08,-1.81334 -1.28,-0.69333 -2.88,-0.69333 -2.34666,0 -3.99999,0.90667 -1.6,0.90666 -2.45334,2.66666 -0.85333,1.76 -0.85333,4.26667 0,2.55999 1.06667,4.42666 1.12,1.86667 3.09333,2.93333 2.02666,1.01333 4.74666,1.01333 1.86667,0 3.41333,-0.58666 1.54667,-0.58667 3.30667,-2.02667 l 3.62666,5.06667 q -1.54666,1.38666 -3.41333,2.34666 -1.86666,0.90667 -3.84,1.38667 -1.97333,0.48 -3.89333,0.48 z"
           id="path7091" /><path
           d="m 472.49079,303.9265 q -2.08,0 -3.2,-1.17333 -1.12,-1.17333 -1.12,-3.36 0,-1.97333 1.17334,-3.2 1.22666,-1.28 3.14666,-1.28 2.02667,0 3.14667,1.17334 1.12,1.17333 1.12,3.30666 0,2.02667 -1.17334,3.30666 -1.17333,1.22667 -3.09333,1.22667 z"
           id="path7093" /></g><path
         id="path748-1-7-0"
         style="display:inline;stroke:#000000;stroke-width:0;stroke-linecap:butt;stroke-linejoin:miter;stroke-dasharray:none;stroke-opacity:1"
         d="m 133.52735,210.59356 c -1.03273,-0.0124 -1.84219,2.99504 -2.01432,3.91522 -2.16973,0.82844 -6.39106,2.40627 -6.39106,2.40627 0,0 -1.89837,-2.36007 -3.0374,-3.19536 -0.59174,-0.43395 -1.46529,0.18032 -1.65683,1.30193 -0.93136,5.45379 -0.28546,14.76898 1.89342,16.48965 1.95495,1.54382 7.06188,2.11608 11.26664,1.04258 4.20474,-1.07351 8.7907,-4.01597 9.08949,-6.17102 0.37956,-2.7378 -3.43229,-4.57594 -3.43229,-4.57594 0,0 -3.84122,-9.14886 -5.04946,-10.76972 -0.22986,-0.30837 -0.45385,-0.44105 -0.66819,-0.44361 z m 2.26425,7.74075 c 0.18196,0.0263 1.73872,2.04024 1.47873,4.76021 -0.0736,0.77047 -0.35396,1.37613 -0.72539,1.8476 a 4.5180304,1.2044132 78.845674 0 0 -0.338,-2.96559 4.5180304,1.2044132 78.845674 0 0 -1.26261,-3.42578 c 0.43767,-0.18075 0.77635,-0.19808 0.84727,-0.21644 z m -2.17456,1.26 a 4.5180304,1.2044132 78.845674 0 0 0.3276,3.34161 4.5180304,1.2044132 78.845674 0 0 1.09523,3.16157 c -0.57683,0.26494 -1.07295,0.34935 -1.20346,0.32596 -0.28824,-0.22171 -1.55094,-4.50865 -0.58434,-6.26819 0.11604,-0.21122 0.23874,-0.39678 0.36497,-0.56095 z m -9.36508,2.1141 a 4.9380224,1.702098 76.549806 0 0 0.37959,4.2126 4.9380224,1.702098 76.549806 0 0 0.79949,2.1804 c -0.82974,-0.15634 -1.56042,-0.53766 -1.98995,-1.30193 -1.09922,-1.95592 -1.13122,-3.99823 -0.57752,-4.89769 0.43159,-0.1109 0.90131,-0.17832 1.38839,-0.19338 z m 2.70429,0.49952 c 0.49637,0.21495 0.97222,0.50411 1.40528,0.87879 1.56244,1.3518 2.00636,3.98867 1.8866,4.41475 -0.30117,0.083 -1.09726,0.34022 -2.05495,0.51609 a 4.9380224,1.702098 76.549806 0 0 -0.44069,-3.63768 4.9380224,1.702098 76.549806 0 0 -0.79624,-2.17195 z" /></g></g></svg>
