<?xml version="1.0" encoding="UTF-8" standalone="no"?>

<svg
   width="22.70446mm"
   height="22.527115mm"
   viewBox="0 0 22.70446 22.527115"
   version="1.1"
   id="svg5"
   xml:space="preserve"
   xmlns="http://www.w3.org/2000/svg"
   xmlns:svg="http://www.w3.org/2000/svg"><defs
     id="defs2" /><g
     id="layer1"
     transform="translate(-115.9177,-249.6508)"><path
       id="path748-8-0-0-1"
       style="fill:#E9D8C4;stroke:#000000;stroke-width:0;stroke-linecap:butt;stroke-linejoin:miter;stroke-opacity:0"
       d="m 129.42393,249.73348 c -1.02587,-0.0121 -1.82993,2.97484 -2.00093,3.88888 -2.15529,0.82295 -6.34825,2.39062 -6.34825,2.39062 0,0 -1.88607,-2.34439 -3.01754,-3.17412 -0.58781,-0.43108 -1.45555,0.17878 -1.6458,1.29296 -0.92519,5.41751 -0.2836,14.67113 1.88084,16.38034 1.94196,1.53355 7.01489,2.1017 11.19172,1.03533 4.1768,-1.06636 8.73228,-3.98896 9.02908,-6.12967 0.37704,-2.71962 -3.40947,-4.54554 -3.40947,-4.54554 0,0 -3.81568,-9.08803 -5.0159,-10.6981 -0.22834,-0.30634 -0.45082,-0.43814 -0.66375,-0.4407 z m 2.2492,7.68931 c 0.18075,0.0263 1.72716,2.02638 1.46889,4.72825 -0.0753,0.78738 -0.3683,1.40071 -0.75316,1.87471 a 3.8934503,1.2922123 77.547471 0 0 -0.24341,-3.03434 3.8934503,1.2922123 77.547471 0 0 -1.57221,-3.23189 c 0.55583,-0.29582 1.01601,-0.315 1.09989,-0.33673 z m -2.2195,1.33073 a 3.8934503,1.2922123 77.547471 0 0 0.23535,3.08984 3.8934503,1.2922123 77.547471 0 0 1.48893,3.1664 c -0.67538,0.36219 -1.29865,0.475 -1.44697,0.44841 -0.28632,-0.22024 -1.54063,-4.47901 -0.58045,-6.22685 0.097,-0.17653 0.19866,-0.33469 0.30314,-0.4778 z m -9.24342,2.02095 a 4.9051985,1.6907838 76.549806 0 0 0.37704,4.18459 4.9051985,1.6907838 76.549806 0 0 0.79421,2.16559 c -0.82414,-0.15537 -1.55012,-0.5342 -1.97673,-1.29328 -1.09191,-1.94293 -1.1237,-3.97166 -0.57368,-4.86513 0.42862,-0.11013 0.89539,-0.17684 1.37916,-0.19177 z m 2.6863,0.49619 c 0.49303,0.21355 0.96577,0.50076 1.39595,0.87295 1.55205,1.34281 1.99334,3.96215 1.87439,4.3854 -0.2992,0.0825 -1.09014,0.33835 -2.04164,0.51299 a 4.9051985,1.6907838 76.549806 0 0 -0.43773,-3.61383 4.9051985,1.6907838 76.549806 0 0 -0.79097,-2.15751 z" /></g></svg>
